<svg width="60" height="60" viewBox="0 0 60 60" fill="none" xmlns="http://www.w3.org/2000/svg">
<path fill-rule="evenodd" clip-rule="evenodd" d="M49 59L11 59C8.34784 59 5.80432 57.9464 3.92896 56.0711C2.05359 54.1957 1 51.6522 1 49L1 11C1 8.34783 2.0536 5.80431 3.92896 3.92895C5.80432 2.05359 8.34784 0.999996 11 0.999996L49 0.999999C51.6522 0.999999 54.1957 2.05359 56.071 3.92895C57.9464 5.80432 59 8.34784 59 11L59 49C59 51.6522 57.9464 54.1957 56.071 56.0711C54.1957 57.9464 51.6522 59 49 59ZM23.97 32.47C24.2781 32.7922 24.6482 33.0486 25.0581 33.2238C25.468 33.3989 25.9092 33.4893 26.355 33.4893C26.8008 33.4893 27.2419 33.3989 27.6519 33.2238C28.0618 33.0486 28.4319 32.7922 28.74 32.47L36.98 23.95C37.6152 23.286 37.9699 22.4024 37.9699 21.4835C37.9699 20.5645 37.6152 19.681 36.98 19.017C36.6719 18.6948 36.3018 18.4384 35.8918 18.2632C35.4819 18.0881 35.0407 17.9977 34.595 17.9977C34.1492 17.9977 33.7081 18.0881 33.2982 18.2632C32.8883 18.4384 32.5181 18.6948 32.21 19.017L23.97 27.537C23.3347 28.201 22.9802 29.0846 22.9802 30.0035C22.9802 30.9225 23.3347 31.806 23.97 32.47V32.47ZM23.97 32.47L32.21 40.99C32.5181 41.3122 32.8883 41.5686 33.2982 41.7438C33.7081 41.919 34.1492 42.0092 34.595 42.0092C35.0407 42.0092 35.4819 41.919 35.8918 41.7438C36.3018 41.5686 36.6719 41.3122 36.98 40.99C37.6152 40.326 37.9699 39.4425 37.9699 38.5235C37.9699 37.6045 37.6152 36.721 36.98 36.057L28.74 27.537C28.4319 27.2148 28.0618 26.9584 27.6519 26.7832C27.2419 26.6081 26.8008 26.5177 26.355 26.5177C25.9092 26.5177 25.468 26.6081 25.0581 26.7832C24.6482 26.9584 24.2781 27.2148 23.97 27.537C23.3347 28.201 22.9802 29.0846 22.9802 30.0035C22.9802 30.9225 23.3347 31.806 23.97 32.47V32.47Z" stroke="#535353" stroke-width="2"/>
</svg>
