<svg width="150" height="150" viewBox="0 0 150 150" fill="none" xmlns="http://www.w3.org/2000/svg">
<path d="M145.581 13.2568C148.022 10.8163 148.022 6.85939 145.581 4.41888V4.41888C143.14 1.97839 139.184 1.97841 136.743 4.41892L82.0711 59.0911C78.1658 62.9964 71.8342 62.9964 67.9289 59.0911L13.2567 4.41892C10.8163 1.97842 6.85941 1.97842 4.41891 4.41891V4.41891C1.97842 6.85941 1.97842 10.8162 4.41892 13.2567L59.0911 67.9289C62.9964 71.8342 62.9964 78.1658 59.0911 82.0711L4.41892 136.743C1.97841 139.184 1.97839 143.14 4.41888 145.581V145.581C6.85939 148.022 10.8163 148.022 13.2568 145.581L67.9289 90.9089C71.8342 87.0036 78.1658 87.0036 82.0711 90.9089L136.743 145.581C139.184 148.022 143.14 148.022 145.581 145.581V145.581C148.022 143.14 148.022 139.184 145.581 136.743L90.9089 82.0711C87.0036 78.1658 87.0036 71.8342 90.9089 67.9289L145.581 13.2568Z" fill="#FCFF19"/>
</svg>
