<svg width="491" height="491" viewBox="0 0 491 491" fill="none" xmlns="http://www.w3.org/2000/svg">
<g clip-path="url(#clip0)">
<path d="M472.327 216.531L245.212 443.667L18.0965 216.531C13.8595 212.438 7.10653 212.556 3.01353 216.793C-0.978469 220.927 -0.978469 227.48 3.01353 231.613L237.681 466.28C241.846 470.444 248.598 470.444 252.764 466.28L487.431 231.613C491.524 227.376 491.406 220.623 487.169 216.53C483.035 212.537 476.482 212.537 472.348 216.53L472.327 216.531Z" fill="#607D8B"/>
<path d="M472.327 24.5294L245.212 251.665L18.0965 24.5294C13.8595 20.4364 7.10653 20.5544 3.01353 24.7914C-0.978469 28.9254 -0.978469 35.4784 3.01353 39.6124L237.681 274.279C241.846 278.443 248.598 278.443 252.764 274.279L487.431 39.6124C491.668 35.5194 491.785 28.7674 487.693 24.5294C483.6 20.2924 476.848 20.1754 472.61 24.2674C472.521 24.3534 472.434 24.4404 472.348 24.5294H472.327Z" fill="#607D8B"/>
<path d="M245.213 469.416C242.382 469.421 239.665 468.301 237.661 466.301L2.99437 231.634C-1.09862 227.397 -0.980625 220.644 3.25638 216.551C7.39037 212.559 13.9434 212.559 18.0764 216.551L245.212 443.666L472.327 216.53C476.564 212.437 483.317 212.555 487.41 216.792C491.403 220.926 491.403 227.479 487.41 231.613L252.744 466.28C250.748 468.281 248.04 469.409 245.213 469.416Z" fill="#FCFF19"/>
<path d="M245.213 277.415C242.382 277.42 239.665 276.3 237.661 274.3L2.99437 39.6334C-1.09862 35.3964 -0.980625 28.6434 3.25638 24.5504C7.39037 20.5584 13.9434 20.5584 18.0774 24.5504L245.213 251.665L472.328 24.5294C476.421 20.2924 483.173 20.1754 487.411 24.2674C491.649 28.3594 491.765 35.1124 487.673 39.3504C487.587 39.4394 487.5 39.5264 487.411 39.6124L252.744 274.279C250.748 276.28 248.04 277.408 245.213 277.415Z" fill="#FCFF19"/>
</g>
<defs>
<clipPath id="clip0">
<rect width="490.688" height="490.688" fill="white"/>
</clipPath>
</defs>
</svg>
