<svg width="512" height="512" viewBox="0 0 512 512" fill="none" xmlns="http://www.w3.org/2000/svg">
<g clip-path="url(#clip0)">
<path d="M256 10.6667C114.56 10.6667 0 128.202 0 273.163C0 389.163 73.344 487.532 175.04 522.214C187.84 524.685 192.533 516.56 192.533 509.592C192.533 503.359 192.32 486.842 192.213 464.96C121.003 480.787 105.984 429.744 105.984 429.744C94.336 399.447 77.504 391.344 77.504 391.344C54.3147 375.072 79.296 375.406 79.296 375.406C105.003 377.231 118.507 402.452 118.507 402.452C141.333 442.588 178.432 430.99 193.067 424.29C195.371 407.305 201.963 395.752 209.28 389.185C152.427 382.618 92.672 360.046 92.672 259.473C92.672 230.823 102.592 207.405 119.019 189.04C116.139 182.407 107.499 155.716 121.259 119.565C121.259 119.565 142.699 112.531 191.659 146.478C212.139 140.646 233.899 137.752 255.659 137.619C277.419 137.752 299.179 140.646 319.659 146.478C368.299 112.531 389.739 119.565 389.739 119.565C403.499 155.716 394.859 182.407 392.299 189.04C408.619 207.405 418.539 230.823 418.539 259.473C418.539 360.313 358.699 382.507 301.739 388.962C310.699 396.842 319.019 412.937 319.019 437.535C319.019 472.662 318.699 500.888 318.699 509.414C318.699 516.293 323.179 524.507 336.299 521.88C438.72 487.421 512 388.985 512 273.163C512 128.202 397.376 10.6667 256 10.6667V10.6667Z" fill="#FCFF19"/>
</g>
<defs>
<clipPath id="clip0">
<rect width="512" height="512" fill="white"/>
</clipPath>
</defs>
</svg>
