<svg width="35" height="25" viewBox="0 0 35 25" fill="none" xmlns="http://www.w3.org/2000/svg">
<path d="M33.5294 0H1.47059C0.658406 0 0 0.658406 0 1.47059C0 2.28277 0.658406 2.94118 1.47059 2.94118H33.5294C34.3416 2.94118 35 2.28277 35 1.47059C35 0.658406 34.3416 0 33.5294 0Z" fill="black"/>
<path d="M33.5294 11.0294H1.47059C0.658406 11.0294 0 11.6878 0 12.5C0 13.3122 0.658406 13.9706 1.47059 13.9706H33.5294C34.3416 13.9706 35 13.3122 35 12.5C35 11.6878 34.3416 11.0294 33.5294 11.0294Z" fill="black"/>
<path d="M33.5294 22.0588H1.47059C0.658406 22.0588 0 22.7172 0 23.5294C0 24.3416 0.658406 25 1.47059 25H33.5294C34.3416 25 35 24.3416 35 23.5294C35 22.7172 34.3416 22.0588 33.5294 22.0588Z" fill="black"/>
</svg>
